<svg id="Layer_1" data-name="Layer 1" xmlns="http://www.w3.org/2000/svg" viewBox="0 0 351.87 148.36"><defs><style>.cls-1{fill:#c18e34;}.cls-2{fill:#ea8f6e;}</style></defs><path class="cls-1" d="M4.06,49.57A3.88,3.88,0,0,1,0,45.51a3.79,3.79,0,0,1,4.06-3.94,3.79,3.79,0,0,1,4.06,3.94A3.88,3.88,0,0,1,4.06,49.57ZM1.43,119.2V65.34H6.69V119.2Z"/><path class="cls-1" d="M31.53,119.2V65.1h5.25v54.1Zm36.54,0V86.72c0-10.63-3.1-18.16-15.52-18.16-6.09,0-10.75,2.63-13.38,6.69V68.92c3.22-3.22,8.24-5.13,13.85-5.13,16,0,20.43,9.79,20.43,22.81v32.6Z"/><path class="cls-1" d="M95.18,92.09c0-19.23,11-27.71,23.53-28.3v4.65c-9.8.6-18,7.89-18,23.65s8.12,23.17,18,23.65v4.78C106.05,119.92,95.18,111.32,95.18,92.09ZM134,76.57c-1.19-3.35-4.65-7.65-12.9-8.13V63.79c11.83.35,17.2,6.57,18.64,12.78Zm-12.9,39.17c8.6-.24,12.19-4.54,13.38-8h5.73c-1.43,6.33-6.92,12.42-19.11,12.78Z"/><path class="cls-1" d="M165.64,49.57a3.88,3.88,0,0,1-4.06-4.06,4.06,4.06,0,0,1,8.12,0A3.88,3.88,0,0,1,165.64,49.57ZM163,119.2V65.34h5.26V119.2Z"/><path class="cls-1" d="M193.1,119.2V65.1h5.26v54.1Zm36.55,0V86.72c0-10.63-3.11-18.16-15.53-18.16-6.09,0-10.75,2.63-13.37,6.69V68.92C204,65.7,209,63.79,214.6,63.79c16,0,20.42,9.79,20.42,22.81v32.6Z"/><path class="cls-1" d="M258.55,102.12V54.59h5.37v12.9H284V72H263.92v30.33c0,7.77,3.35,12.9,10.39,13.5v4.66C263.09,120,258.55,112.51,258.55,102.12Zm18.15,13.74a10.85,10.85,0,0,0,9.32-6.21h5.73c-2.39,7.16-8.48,10.51-15.05,10.87Z"/><path class="cls-1" d="M308.11,103.44c0-8.24,5.85-17.08,20.54-17.08,5.73,0,10.39,1.31,14,3.7v6.21c-2.51-3.1-7-5.37-13.85-5.37-11.47,0-15,6.8-15,12.54s3.58,12.42,15,12.42c6.81,0,11.34-2.15,13.85-5.38v6.21c-3.58,2.63-8.12,3.83-14.09,3.83C314.08,120.52,308.11,111.68,308.11,103.44Zm1.67-27.59c1.19-6,6.21-11.71,19.11-12.06v4.65c-9.44.36-12.42,4.07-13.5,7.41ZM345,119.2V82.9c0-10.28-5.13-14.1-13.73-14.46V63.79c12.3.35,19.11,5.37,19.11,19.22V119.2Z"/><path class="cls-2" d="M154.43,0a67.93,67.93,0,0,0,10.23,15.54,56,56,0,0,0,13.85,11.31,56.16,56.16,0,0,0,16.72,6.33,68.64,68.64,0,0,0,18.57,1.1,38.34,38.34,0,0,1-19.19,3.58A44,44,0,0,1,175.51,32,44,44,0,0,1,160.93,18.4,38.43,38.43,0,0,1,154.43,0Z"/><path class="cls-2" d="M191,135.26h7l-.15,1.58h-5v4H197v1.55h-4.1v6H191Z"/><path class="cls-2" d="M210.64,135.26h7.16l-.15,1.58h-5.11v3.93h4.15v1.54h-4.15v4.47H218v1.58h-7.39Z"/><path class="cls-2" d="M230.85,135.26h3.64c2.94,0,4.5,1.16,4.5,3.53a3.19,3.19,0,0,1-3.18,3.44,3,3,0,0,1,1.56,1.68l2.33,4.45h-2.1l-2-4c-.73-1.5-1.07-1.76-2.24-1.76h-.65v5.71h-1.9Zm3.47,6c2,0,2.69-.65,2.69-2.33,0-1.5-.81-2.18-2.52-2.18h-1.73v4.51Z"/><path class="cls-2" d="M254.33,136.84H251v-1.58h8.65l-.13,1.58h-3.26v11.52h-1.93Z"/><path class="cls-2" d="M272.2,135.26h1.92v13.1H272.2Z"/><path class="cls-2" d="M287.71,135.26h1.9v11.5h5l-.15,1.6h-6.73Z"/><path class="cls-2" d="M307.28,135.26h1.92v13.1h-1.92Z"/><path class="cls-2" d="M325.27,136.84h-3.33v-1.58h8.65l-.13,1.58h-3.25v11.52h-1.94Z"/><path class="cls-2" d="M346,143l-3.83-7.71h2.12l2.75,5.81,2.76-5.81h2.07L347.94,143v5.35H346Z"/></svg>